<?xml version="1.0" encoding="utf-8"?>
<!-- Generated by IcoMoon.io -->
<!DOCTYPE svg PUBLIC "-//W3C//DTD SVG 1.1//EN" "http://www.w3.org/Graphics/SVG/1.1/DTD/svg11.dtd">
<svg version="1.1" xmlns="http://www.w3.org/2000/svg" xmlns:xlink="http://www.w3.org/1999/xlink" width="48" height="56" viewBox="0 0 48 56">
<path fill="#000" d="M35.438 33.594q-1.156 3.781-4.312 6.094t-7.125 2.313-7.125-2.313-4.312-6.094q-0.25-0.781 0.125-1.516t1.187-0.984q0.781-0.25 1.516 0.125t0.984 1.187q0.781 2.5 2.891 4.047t4.734 1.547 4.734-1.547 2.891-4.047q0.25-0.812 1-1.187t1.531-0.125 1.156 0.984 0.125 1.516zM20 20q0 1.656-1.172 2.828t-2.828 1.172-2.828-1.172-1.172-2.828 1.172-2.828 2.828-1.172 2.828 1.172 1.172 2.828zM36 20q0 1.656-1.172 2.828t-2.828 1.172-2.828-1.172-1.172-2.828 1.172-2.828 2.828-1.172 2.828 1.172 1.172 2.828zM44 28q0-4.063-1.594-7.766t-4.266-6.375-6.375-4.266-7.766-1.594-7.766 1.594-6.375 4.266-4.266 6.375-1.594 7.766 1.594 7.766 4.266 6.375 6.375 4.266 7.766 1.594 7.766-1.594 6.375-4.266 4.266-6.375 1.594-7.766zM48 28q0 6.531-3.219 12.047t-8.734 8.734-12.047 3.219-12.047-3.219-8.734-8.734-3.219-12.047 3.219-12.047 8.734-8.734 12.047-3.219 12.047 3.219 8.734 8.734 3.219 12.047z"></path>
</svg>
